# Blender v2.93.1 OBJ File: 'banana.blend'
# www.blender.org
mtllib banana.mtl
o Cube
v 0.010338 0.027003 0.054086
v 0.022653 0.020457 -0.120927
v 0.010338 -0.027003 0.054086
v 0.022653 -0.020457 -0.120927
v -0.038109 -0.027003 0.030858
v 0.062969 -0.020457 -0.114392
v -0.038109 0.027003 0.030858
v 0.062969 0.020457 -0.114392
v -0.085786 0.017870 0.088765
v -0.085786 -0.017870 0.088765
v -0.062055 -0.017870 0.115119
v -0.062055 0.017870 0.115119
v -0.118697 -0.008862 0.126383
v -0.118697 0.008862 0.126383
v -0.103429 -0.013521 0.108984
v -0.107694 -0.008862 0.140278
v -0.086642 -0.013521 0.130184
v -0.107694 0.008862 0.140278
v -0.086642 0.013521 0.130184
v -0.103429 0.013521 0.108984
v 0.054268 0.028026 -0.031198
v -0.000880 0.028026 -0.041022
v 0.054268 -0.028026 -0.031198
v -0.000880 -0.028026 -0.041022
v 0.038424 0.028845 0.011911
v 0.038424 -0.028846 0.011911
v -0.016927 -0.028846 -0.003474
v -0.016927 0.028845 -0.003474
v -0.063540 0.022464 0.064048
v -0.063540 -0.022464 0.064048
v -0.026974 -0.022464 0.089553
v -0.026974 0.022464 0.089553
v 0.012973 0.024458 -0.083170
v 0.061334 0.024458 -0.075966
v 0.061334 -0.024458 -0.075966
v 0.012973 -0.024458 -0.083170
v 0.030910 0.016137 -0.151089
v 0.062822 0.016137 -0.146398
v 0.062822 -0.016137 -0.146398
v 0.030910 -0.016137 -0.151089
v 0.039132 0.012553 -0.177349
v 0.045789 0.008917 -0.196228
v 0.045789 -0.008917 -0.196228
v 0.063436 -0.008917 -0.193660
v 0.063436 0.008917 -0.193660
v 0.063982 0.012553 -0.173769
v 0.063982 -0.012553 -0.173769
v 0.039132 -0.012553 -0.177349
v 0.025910 0.028293 0.033393
v 0.018250 0.022470 -0.102996
v 0.026744 -0.018326 -0.136794
v 0.025910 -0.028293 0.033393
v -0.026766 -0.028293 0.013771
v 0.062897 -0.018326 -0.131096
v -0.050715 0.024904 0.048081
v -0.074998 0.015535 0.123201
v 0.062897 0.018326 -0.131096
v -0.094479 0.015535 0.099050
v -0.094479 -0.015535 0.099050
v 0.063118 0.014061 -0.160467
v -0.074998 -0.015535 0.123201
v -0.075452 -0.020147 0.077422
v -0.045686 -0.020147 0.103840
v -0.045686 0.020147 0.103840
v -0.073920 0.024571 0.101942
v -0.057605 -0.000000 0.120060
v -0.073920 -0.024571 0.101942
v -0.090236 -0.000000 0.083823
v -0.121277 -0.000000 0.125980
v -0.113314 -0.011750 0.118801
v -0.114626 -0.010714 0.134380
v -0.098725 -0.011750 0.137225
v -0.107975 -0.000000 0.142779
v -0.098725 0.011750 0.137225
v -0.114626 0.010714 0.134380
v -0.113314 0.011750 0.118801
v -0.095035 0.018592 0.119584
v -0.083494 -0.000000 0.134160
v -0.095035 -0.018592 0.119584
v -0.106577 -0.000000 0.105009
v -0.013885 0.037128 0.042472
v 0.019422 -0.000000 0.058442
v -0.013885 -0.037129 0.042472
v -0.047193 -0.000000 0.026503
v 0.058677 0.026446 -0.053834
v -0.008501 0.028800 -0.021556
v 0.058677 -0.026446 -0.053834
v 0.006434 -0.026446 -0.062013
v 0.026694 0.038535 -0.036110
v 0.064609 -0.000000 -0.029356
v 0.026694 -0.038535 -0.036110
v -0.011220 -0.000000 -0.042864
v 0.047716 0.028800 -0.009436
v 0.047716 -0.028800 -0.009436
v -0.008501 -0.028800 -0.021556
v -0.026766 0.028293 0.013771
v -0.027305 -0.000000 -0.006358
v 0.010749 -0.039663 0.004219
v 0.048803 -0.000000 0.014795
v 0.010749 0.039663 0.004219
v -0.075452 0.020147 0.077422
v -0.050715 -0.024904 0.048081
v -0.007751 -0.024904 0.072902
v -0.007751 0.024904 0.072902
v -0.070396 -0.000000 0.059266
v -0.045257 -0.030889 0.076800
v -0.020118 -0.000000 0.094335
v -0.045257 0.030889 0.076800
v 0.006434 0.026446 -0.062013
v 0.062608 0.022470 -0.096137
v 0.062608 -0.022470 -0.096137
v 0.018250 -0.022470 -0.102996
v 0.037154 0.033630 -0.079568
v 0.070402 -0.000000 -0.074616
v 0.037154 -0.033630 -0.079568
v 0.003905 -0.000000 -0.084521
v 0.026744 0.018326 -0.136794
v 0.063118 -0.014061 -0.160467
v 0.035280 -0.014061 -0.164438
v 0.035280 0.014061 -0.164438
v 0.046866 0.022189 -0.148743
v 0.068806 -0.000000 -0.145519
v 0.046866 -0.022189 -0.148743
v 0.024926 -0.000000 -0.151968
v 0.042196 0.011450 -0.189327
v 0.044056 -0.000000 -0.197922
v 0.054818 -0.010876 -0.196356
v 0.065580 -0.000000 -0.194789
v 0.054818 0.010876 -0.196356
v 0.064857 0.011450 -0.186034
v 0.064857 -0.011450 -0.186034
v 0.042196 -0.011450 -0.189327
v 0.051557 0.017261 -0.175559
v 0.068641 -0.000000 -0.173097
v 0.051557 -0.017261 -0.175559
v 0.034473 -0.000000 -0.178020
v 0.015094 -0.000000 -0.122152
v 0.042811 -0.028128 -0.117659
v 0.070528 -0.000000 -0.113166
v 0.042811 0.028128 -0.117659
v 0.009933 -0.000000 -0.104282
v 0.049199 0.019334 -0.162452
v 0.049199 -0.019334 -0.162452
v 0.068337 -0.000000 -0.159722
v -0.029233 0.034244 0.060492
v 0.030061 -0.000000 -0.165183
v -0.071345 -0.000000 0.127729
v -0.098132 -0.000000 0.094522
v -0.084739 0.021361 0.111125
v -0.084739 -0.021361 0.111125
v -0.117628 -0.000000 0.136582
v -0.106161 0.016149 0.128117
v -0.096136 -0.000000 0.140777
v -0.106161 -0.016149 0.128117
v -0.116186 -0.000000 0.115456
v 0.000305 -0.000000 0.077556
v -0.029233 -0.034244 0.060492
v -0.058771 -0.000000 0.043427
v 0.019608 0.039599 -0.015496
v 0.058257 -0.000000 -0.007164
v 0.019608 -0.039599 -0.015496
v -0.019042 -0.000000 -0.023828
v -0.036643 -0.000000 0.010092
v -0.000428 -0.038902 0.023582
v 0.035787 -0.000000 0.037072
v -0.000428 0.038902 0.023582
v -0.081033 -0.000000 0.072468
v -0.060569 -0.027702 0.090631
v -0.040105 -0.000000 0.108794
v -0.060569 0.027702 0.090631
v 0.032555 0.036363 -0.057923
v 0.068472 -0.000000 -0.052300
v 0.032555 -0.036364 -0.057923
v -0.003362 -0.000000 -0.063546
v 0.044820 0.025198 -0.133945
v 0.069676 -0.000000 -0.130028
v 0.044820 -0.025198 -0.133945
v 0.019965 -0.000000 -0.137862
v 0.037954 -0.000000 -0.190085
v 0.053547 -0.015756 -0.187819
v 0.069139 -0.000000 -0.185553
v 0.053547 0.015756 -0.187819
v 0.055249 -0.000000 -0.199318
v 0.040429 -0.030896 -0.099567
v 0.070926 -0.000000 -0.094851
v 0.040429 0.030896 -0.099567
vt 0.556104 0.000000
vt 0.564762 0.000015
vt 0.564410 0.125008
vt 0.553034 0.125002
vt 0.573420 0.000031
vt 0.573392 0.125011
vt 0.573390 0.250003
vt 0.564340 0.250002
vt 0.552755 0.250001
vt 0.590552 1.000000
vt 0.587934 0.874998
vt 0.590852 0.875000
vt 0.590552 1.000000
vt 0.587696 0.749999
vt 0.590913 0.750000
vt 0.596293 0.750000
vt 0.595815 0.875000
vt 0.590552 1.000000
vt 0.587696 0.500000
vt 0.587696 0.375000
vt 0.590913 0.375000
vt 0.590913 0.500000
vt 0.587697 0.250001
vt 0.590913 0.250000
vt 0.596293 0.250000
vt 0.596293 0.375000
vt 0.596293 0.500000
vt 0.587696 0.625000
vt 0.590913 0.625000
vt 0.596293 0.625000
vt 0.423521 0.750004
vt 0.436249 0.750003
vt 0.436215 0.875009
vt 0.423527 0.875013
vt 0.450199 0.750001
vt 0.450057 0.875003
vt 0.448501 1.000000
vt 0.436045 1.000017
vt 0.423589 1.000034
vt 0.587935 0.125002
vt 0.590853 0.125000
vt 0.590552 0.000000
vt 0.590552 0.000000
vt 0.590552 0.000000
vt 0.595815 0.125000
vt 0.402492 0.500000
vt 0.402492 0.625000
vt 0.398315 0.625000
vt 0.398315 0.500000
vt 0.402492 0.750001
vt 0.398315 0.750000
vt 0.394394 0.750000
vt 0.394394 0.625000
vt 0.394394 0.500000
vt 0.398272 0.000000
vt 0.402140 0.124998
vt 0.398308 0.125000
vt 0.398272 0.000000
vt 0.402492 0.249999
vt 0.398315 0.250000
vt 0.394394 0.250000
vt 0.394717 0.125000
vt 0.398272 0.000000
vt 0.402140 0.875003
vt 0.398308 0.875000
vt 0.398272 1.000000
vt 0.398272 1.000000
vt 0.398272 1.000000
vt 0.394717 0.875000
vt 0.402492 0.375000
vt 0.398315 0.375000
vt 0.394394 0.375000
vt 0.423522 0.500000
vt 0.436249 0.500000
vt 0.436249 0.625000
vt 0.423522 0.625000
vt 0.450199 0.500000
vt 0.450199 0.625000
vt 0.423522 0.249996
vt 0.436249 0.249997
vt 0.436249 0.375000
vt 0.423522 0.375000
vt 0.450199 0.249999
vt 0.450199 0.375000
vt 0.423589 -0.000034
vt 0.436045 -0.000017
vt 0.436215 0.124991
vt 0.423527 0.124987
vt 0.448501 0.000000
vt 0.450057 0.124998
vt 0.483598 0.750000
vt 0.501194 0.750000
vt 0.501186 0.875000
vt 0.483598 0.875000
vt 0.519079 0.750000
vt 0.519047 0.875000
vt 0.518694 1.000000
vt 0.501146 1.000000
vt 0.483598 1.000000
vt 0.483598 0.500000
vt 0.501194 0.500000
vt 0.501194 0.625000
vt 0.483598 0.625000
vt 0.519079 0.500000
vt 0.519079 0.625000
vt 0.483598 0.250000
vt 0.501194 0.250000
vt 0.501194 0.375000
vt 0.483598 0.375000
vt 0.519079 0.250000
vt 0.519079 0.375000
vt 0.483598 0.000000
vt 0.501146 0.000000
vt 0.501186 0.125000
vt 0.483598 0.125000
vt 0.518694 0.000000
vt 0.519047 0.125000
vt 0.466049 0.000000
vt 0.466226 0.125000
vt 0.466262 0.250000
vt 0.466262 0.375000
vt 0.466262 0.500000
vt 0.466262 0.625000
vt 0.466262 0.750000
vt 0.466226 0.875000
vt 0.466049 1.000000
vt 0.410931 -0.000017
vt 0.411363 0.124991
vt 0.411450 0.249997
vt 0.411450 0.375000
vt 0.411450 0.500000
vt 0.411450 0.625000
vt 0.411450 0.750003
vt 0.411363 0.875009
vt 0.410931 1.000017
vt 0.537028 0.750000
vt 0.537090 0.875000
vt 0.552755 0.749999
vt 0.553034 0.874998
vt 0.556104 1.000000
vt 0.537399 1.000000
vt 0.537028 0.500000
vt 0.537028 0.625000
vt 0.552755 0.500000
vt 0.552755 0.625000
vt 0.537028 0.250000
vt 0.537028 0.375000
vt 0.552755 0.375000
vt 0.537399 0.000000
vt 0.537090 0.125000
vt 0.573389 0.749997
vt 0.581625 0.749998
vt 0.581686 0.874993
vt 0.573392 0.874989
vt 0.581987 0.999985
vt 0.573422 0.999970
vt 0.573389 0.499999
vt 0.581625 0.500000
vt 0.581625 0.625000
vt 0.573388 0.625000
vt 0.581625 0.250002
vt 0.581625 0.375000
vt 0.573389 0.375000
vt 0.581986 0.000015
vt 0.581685 0.125008
vt 0.564339 0.375000
vt 0.564339 0.500000
vt 0.564339 0.625000
vt 0.564339 0.749998
vt 0.564410 0.874993
vt 0.564763 0.999985
vt 0.125000 0.500000
vt 0.250000 0.500000
vt 0.246851 0.625000
vt 0.125000 0.625000
vt 0.375000 0.500000
vt 0.343510 0.625000
vt 0.375000 0.750000
vt 0.250000 0.750000
vt 0.125000 0.750000
vt 0.385364 0.750000
vt 0.386232 0.875000
vt 0.375000 0.875000
vt 0.386636 1.000000
vt 0.375000 1.000000
vt 0.385364 0.500000
vt 0.383002 0.625000
vt 0.375000 0.250000
vt 0.386151 0.250000
vt 0.386151 0.375000
vt 0.375000 0.375000
vt 0.375000 0.000000
vt 0.386636 0.000000
vt 0.386232 0.125000
vt 0.375000 0.125000
vt 0.607776 0.000000
vt 0.608374 0.125000
vt 0.625000 0.000000
vt 0.625000 0.125000
vt 0.625000 0.250000
vt 0.608494 0.250000
vt 0.608494 0.375000
vt 0.625000 0.375000
vt 0.625000 0.500000
vt 0.609242 0.500000
vt 0.611487 0.625000
vt 0.654938 0.625000
vt 0.625000 0.750000
vt 0.609242 0.750000
vt 0.608374 0.875000
vt 0.625000 0.875000
vt 0.625000 1.000000
vt 0.607776 1.000000
vt 0.750000 0.500000
vt 0.752994 0.625000
vt 0.875000 0.500000
vt 0.875000 0.625000
vt 0.875000 0.750000
vt 0.750000 0.750000
vn -0.8968 0.3476 -0.2736
vn -0.9006 0.3483 -0.2602
vn -0.9006 -0.3483 -0.2602
vn -0.8968 -0.3476 -0.2736
vn -0.3125 0.9179 -0.2447
vn 0.3678 0.9210 -0.1287
vn 0.3633 0.9281 -0.0815
vn -0.3211 0.9248 -0.2039
vn 0.3678 -0.9210 -0.1287
vn -0.3125 -0.9179 -0.2447
vn -0.3211 -0.9248 -0.2039
vn 0.3633 -0.9281 -0.0815
vn 0.9377 0.3462 -0.0312
vn 0.9377 -0.3462 -0.0312
vn 0.9369 -0.3489 0.0213
vn 0.9369 0.3489 0.0213
vn 0.1833 0.9159 0.3570
vn 0.2209 0.9196 0.3249
vn -0.3301 0.9350 -0.1296
vn -0.3341 0.9334 -0.1310
vn -0.8756 -0.3431 -0.3401
vn -0.8756 0.3431 -0.3401
vn -0.8874 0.3456 -0.3050
vn -0.8874 -0.3456 -0.3050
vn 0.4550 -0.3433 0.8217
vn 0.4550 0.3433 0.8217
vn 0.4385 0.3454 0.8297
vn 0.4385 -0.3454 0.8297
vn -0.7554 0.3417 -0.5592
vn -0.7554 -0.3417 -0.5592
vn -0.7314 -0.3436 -0.5891
vn -0.7314 0.3436 -0.5891
vn 0.0718 0.9166 0.3932
vn -0.3845 0.9147 -0.1248
vn -0.3683 0.9181 -0.1466
vn 0.0707 0.9200 0.3855
vn -0.3845 -0.9147 -0.1248
vn 0.0718 -0.9166 0.3932
vn 0.0707 -0.9200 0.3855
vn -0.3683 -0.9181 -0.1466
vn 0.5957 -0.3331 0.7308
vn 0.6633 -0.3351 0.6692
vn 0.6633 0.3351 0.6692
vn 0.5957 0.3331 0.7308
vn -0.3341 -0.9334 -0.1310
vn -0.3301 -0.9350 -0.1296
vn 0.2209 -0.9196 0.3249
vn 0.1833 -0.9159 0.3570
vn -0.7559 0.3484 -0.5543
vn -0.7751 0.3475 -0.5276
vn -0.7751 -0.3475 -0.5276
vn -0.7559 -0.3484 -0.5543
vn 0.3270 0.9343 0.1421
vn 0.3444 0.9362 0.0702
vn -0.3247 0.9319 -0.1619
vn -0.3246 0.9337 -0.1511
vn 0.8612 -0.3458 0.3724
vn 0.9006 -0.3496 0.2582
vn 0.9006 0.3496 0.2582
vn 0.8612 0.3458 0.3724
vn -0.3246 -0.9337 -0.1511
vn -0.3247 -0.9319 -0.1619
vn 0.3444 -0.9362 0.0702
vn 0.3270 -0.9343 0.1421
vn -0.8498 0.3441 -0.3994
vn -0.8687 0.3450 -0.3554
vn -0.8687 -0.3450 -0.3554
vn -0.8498 -0.3441 -0.3994
vn -0.7918 0.3448 -0.5042
vn -0.8187 0.3431 -0.4604
vn -0.8187 -0.3431 -0.4604
vn -0.7918 -0.3448 -0.5042
vn -0.3231 -0.9355 -0.1430
vn -0.3218 -0.9347 -0.1512
vn 0.3026 -0.9307 0.2055
vn 0.2666 -0.9260 0.2672
vn 0.7443 -0.3388 0.5755
vn 0.8098 -0.3418 0.4768
vn 0.8098 0.3418 0.4768
vn 0.7443 0.3388 0.5755
vn 0.2666 0.9260 0.2672
vn 0.3026 0.9307 0.2055
vn -0.3218 0.9347 -0.1512
vn -0.3231 0.9355 -0.1430
vn -0.7280 0.3461 -0.5918
vn -0.7297 0.3475 -0.5889
vn -0.7297 -0.3475 -0.5889
vn -0.7280 -0.3461 -0.5918
vn -0.3501 -0.9254 -0.1451
vn -0.3342 -0.9311 -0.1461
vn 0.1548 -0.9173 0.3669
vn 0.1187 -0.9189 0.3762
vn 0.5052 -0.3398 0.7933
vn 0.5488 -0.3352 0.7658
vn 0.5488 0.3352 0.7658
vn 0.5052 0.3398 0.7933
vn 0.1187 0.9189 0.3762
vn 0.1548 0.9173 0.3669
vn -0.3342 0.9311 -0.1461
vn -0.3501 0.9254 -0.1451
vn 0.3551 0.9348 0.0032
vn 0.3600 0.9321 -0.0409
vn -0.3235 0.9277 -0.1865
vn -0.3231 0.9289 -0.1808
vn 0.9234 -0.3510 0.1554
vn 0.9331 -0.3504 0.0806
vn 0.9331 0.3504 0.0806
vn 0.9234 0.3510 0.1554
vn -0.3231 -0.9289 -0.1808
vn -0.3235 -0.9277 -0.1865
vn 0.3600 -0.9321 -0.0409
vn 0.3551 -0.9348 0.0032
vn -0.8777 0.3450 -0.3326
vn -0.8866 0.3459 -0.3069
vn -0.8866 -0.3459 -0.3069
vn -0.8777 -0.3450 -0.3326
vn 0.3696 0.9214 -0.1196
vn 0.3697 0.9194 -0.1346
vn -0.3143 0.9207 -0.2316
vn -0.3189 0.9251 -0.2061
vn 0.9378 -0.3439 -0.0476
vn 0.9374 -0.3441 -0.0532
vn 0.9374 0.3441 -0.0532
vn 0.9378 0.3439 -0.0476
vn -0.3189 -0.9251 -0.2061
vn -0.3143 -0.9207 -0.2316
vn 0.3697 -0.9194 -0.1346
vn 0.3696 -0.9214 -0.1196
vn -0.8956 0.3475 -0.2777
vn -0.8854 0.3454 -0.3111
vn -0.8854 -0.3454 -0.3111
vn -0.8956 -0.3475 -0.2777
vn -0.3251 -0.9284 -0.1799
vn -0.3237 -0.9281 -0.1841
vn 0.3668 -0.9255 -0.0941
vn 0.3631 -0.9293 -0.0681
vn 0.9370 -0.3485 0.0245
vn 0.9381 -0.3458 -0.0200
vn 0.9381 0.3458 -0.0200
vn 0.9370 0.3485 0.0245
vn 0.3631 0.9293 -0.0681
vn 0.3668 0.9255 -0.0941
vn -0.3237 0.9281 -0.1841
vn -0.3251 0.9284 -0.1799
vn -0.8946 -0.2866 0.3428
vn -0.5448 -0.2812 0.7900
vn -0.5448 0.2812 0.7900
vn -0.8946 0.2866 0.3428
vn -0.1444 0.8567 0.4952
vn 0.0845 0.9229 0.3756
vn -0.3385 0.9245 -0.1753
vn -0.5041 0.8635 0.0150
vn 0.1865 -0.2960 0.9368
vn 0.4345 -0.3463 0.8314
vn 0.4345 0.3463 0.8314
vn 0.1865 0.2960 0.9368
vn -0.5041 -0.8635 0.0150
vn -0.3385 -0.9245 -0.1753
vn 0.0845 -0.9229 0.3756
vn -0.1444 -0.8567 0.4952
vn -0.8449 0.3036 -0.4404
vn -0.6906 0.3481 -0.6339
vn -0.6906 -0.3481 -0.6339
vn -0.8449 -0.3036 -0.4404
vn -0.8999 0.3493 -0.2610
vn -0.7743 0.2946 -0.5600
vn -0.7743 -0.2946 -0.5600
vn -0.8999 -0.3493 -0.2610
vn -0.3289 -0.9292 -0.1686
vn -0.2282 -0.8477 -0.4790
vn 0.3550 -0.8485 -0.3925
vn 0.3619 -0.9305 -0.0567
vn 0.9359 -0.3504 0.0363
vn 0.9034 -0.2950 -0.3111
vn 0.9034 0.2950 -0.3111
vn 0.9359 0.3504 0.0363
vn 0.3619 0.9305 -0.0567
vn 0.3550 0.8485 -0.3925
vn -0.2282 0.8477 -0.4790
vn -0.3289 0.9292 -0.1686
vn 0.3673 -0.2339 -0.9002
vn -0.0955 -0.2339 -0.9676
vn -0.0955 0.2339 -0.9676
vn 0.3673 0.2339 -0.9002
usemtl Material.001
s off
f 33/1/1 50/2/1 141/3/1 116/4/1
f 50/2/2 2/5/2 137/6/2 141/3/2
f 141/3/3 137/6/3 4/7/3 112/8/3
f 116/4/4 141/3/4 112/8/4 36/9/4
f 37/10/5 121/11/5 142/12/5 120/13/5
f 121/11/6 38/14/6 60/15/6 142/12/6
f 142/12/7 60/15/7 46/16/7 133/17/7
f 120/13/8 142/12/8 133/17/8 41/18/8
f 39/19/9 123/20/9 143/21/9 118/22/9
f 123/20/10 40/23/10 119/24/10 143/21/10
f 143/21/11 119/24/11 48/25/11 135/26/11
f 118/22/12 143/21/12 135/26/12 47/27/12
f 38/14/13 122/28/13 144/29/13 60/15/13
f 122/28/14 39/19/14 118/22/14 144/29/14
f 144/29/15 118/22/15 47/27/15 134/30/15
f 60/15/16 144/29/16 134/30/16 46/16/16
f 32/31/17 104/32/17 145/33/17 108/34/17
f 104/32/18 1/35/18 81/36/18 145/33/18
f 145/33/19 81/36/19 7/37/19 55/38/19
f 108/34/20 145/33/20 55/38/20 29/39/20
f 40/23/21 124/40/21 146/41/21 119/24/21
f 124/40/22 37/42/22 120/43/22 146/41/22
f 146/41/23 120/43/23 41/44/23 136/45/23
f 119/24/24 146/41/24 136/45/24 48/25/24
f 11/46/25 66/47/25 147/48/25 61/49/25
f 66/47/26 12/50/26 56/51/26 147/48/26
f 147/48/27 56/51/27 19/52/27 78/53/27
f 61/49/28 147/48/28 78/53/28 17/54/28
f 9/55/29 68/56/29 148/57/29 58/58/29
f 68/56/30 10/59/30 59/60/30 148/57/30
f 148/57/31 59/60/31 15/61/31 80/62/31
f 58/58/32 148/57/32 80/62/32 20/63/32
f 12/50/33 65/64/33 149/65/33 56/51/33
f 65/64/34 9/66/34 58/67/34 149/65/34
f 149/65/35 58/67/35 20/68/35 77/69/35
f 56/51/36 149/65/36 77/69/36 19/52/36
f 10/59/37 67/70/37 150/71/37 59/60/37
f 67/70/38 11/46/38 61/49/38 150/71/38
f 150/71/39 61/49/39 17/54/39 79/72/39
f 59/60/40 150/71/40 79/72/40 15/61/40
f 31/73/41 103/74/41 156/75/41 107/76/41
f 103/74/42 3/77/42 82/78/42 156/75/42
f 156/75/43 82/78/43 1/35/43 104/32/43
f 107/76/44 156/75/44 104/32/44 32/31/44
f 30/79/45 102/80/45 157/81/45 106/82/45
f 102/80/46 5/83/46 83/84/46 157/81/46
f 157/81/47 83/84/47 3/77/47 103/74/47
f 106/82/48 157/81/48 103/74/48 31/73/48
f 29/85/49 55/86/49 158/87/49 105/88/49
f 55/86/50 7/89/50 84/90/50 158/87/50
f 158/87/51 84/90/51 5/83/51 102/80/51
f 105/88/52 158/87/52 102/80/52 30/79/52
f 25/91/53 93/92/53 159/93/53 100/94/53
f 93/92/54 21/95/54 89/96/54 159/93/54
f 159/93/55 89/96/55 22/97/55 86/98/55
f 100/94/56 159/93/56 86/98/56 28/99/56
f 26/100/57 94/101/57 160/102/57 99/103/57
f 94/101/58 23/104/58 90/105/58 160/102/58
f 160/102/59 90/105/59 21/95/59 93/92/59
f 99/103/60 160/102/60 93/92/60 25/91/60
f 27/106/61 95/107/61 161/108/61 98/109/61
f 95/107/62 24/110/62 91/111/62 161/108/62
f 161/108/63 91/111/63 23/104/63 94/101/63
f 98/109/64 161/108/64 94/101/64 26/100/64
f 28/112/65 86/113/65 162/114/65 97/115/65
f 86/113/66 22/116/66 92/117/66 162/114/66
f 162/114/67 92/117/67 24/110/67 95/107/67
f 97/115/68 162/114/68 95/107/68 27/106/68
f 7/89/69 96/118/69 163/119/69 84/90/69
f 96/118/70 28/112/70 97/115/70 163/119/70
f 163/119/71 97/115/71 27/106/71 53/120/71
f 84/90/72 163/119/72 53/120/72 5/83/72
f 5/83/73 53/120/73 164/121/73 83/84/73
f 53/120/74 27/106/74 98/109/74 164/121/74
f 164/121/75 98/109/75 26/100/75 52/122/75
f 83/84/76 164/121/76 52/122/76 3/77/76
f 3/77/77 52/122/77 165/123/77 82/78/77
f 52/122/78 26/100/78 99/103/78 165/123/78
f 165/123/79 99/103/79 25/91/79 49/124/79
f 82/78/80 165/123/80 49/124/80 1/35/80
f 1/35/81 49/124/81 166/125/81 81/36/81
f 49/124/82 25/91/82 100/94/82 166/125/82
f 166/125/83 100/94/83 28/99/83 96/126/83
f 81/36/84 166/125/84 96/126/84 7/37/84
f 9/55/85 101/127/85 167/128/85 68/56/85
f 101/127/86 29/85/86 105/88/86 167/128/86
f 167/128/87 105/88/87 30/79/87 62/129/87
f 68/56/88 167/128/88 62/129/88 10/59/88
f 10/59/89 62/129/89 168/130/89 67/70/89
f 62/129/90 30/79/90 106/82/90 168/130/90
f 168/130/91 106/82/91 31/73/91 63/131/91
f 67/70/92 168/130/92 63/131/92 11/46/92
f 11/46/93 63/131/93 169/132/93 66/47/93
f 63/131/94 31/73/94 107/76/94 169/132/94
f 169/132/95 107/76/95 32/31/95 64/133/95
f 66/47/96 169/132/96 64/133/96 12/50/96
f 12/50/97 64/133/97 170/134/97 65/64/97
f 64/133/98 32/31/98 108/34/98 170/134/98
f 170/134/99 108/34/99 29/39/99 101/135/99
f 65/64/100 170/134/100 101/135/100 9/66/100
f 21/95/101 85/136/101 171/137/101 89/96/101
f 85/136/102 34/138/102 113/139/102 171/137/102
f 171/137/103 113/139/103 33/140/103 109/141/103
f 89/96/104 171/137/104 109/141/104 22/97/104
f 23/104/105 87/142/105 172/143/105 90/105/105
f 87/142/106 35/144/106 114/145/106 172/143/106
f 172/143/107 114/145/107 34/138/107 85/136/107
f 90/105/108 172/143/108 85/136/108 21/95/108
f 24/110/109 88/146/109 173/147/109 91/111/109
f 88/146/110 36/9/110 115/148/110 173/147/110
f 173/147/111 115/148/111 35/144/111 87/142/111
f 91/111/112 173/147/112 87/142/112 23/104/112
f 22/116/113 109/149/113 174/150/113 92/117/113
f 109/149/114 33/1/114 116/4/114 174/150/114
f 174/150/115 116/4/115 36/9/115 88/146/115
f 92/117/116 174/150/116 88/146/116 24/110/116
f 8/151/117 57/152/117 175/153/117 140/154/117
f 57/152/118 38/14/118 121/11/118 175/153/118
f 175/153/119 121/11/119 37/10/119 117/155/119
f 140/154/120 175/153/120 117/155/120 2/156/120
f 6/157/121 54/158/121 176/159/121 139/160/121
f 54/158/122 39/19/122 122/28/122 176/159/122
f 176/159/123 122/28/123 38/14/123 57/152/123
f 139/160/124 176/159/124 57/152/124 8/151/124
f 4/7/125 51/161/125 177/162/125 138/163/125
f 51/161/126 40/23/126 123/20/126 177/162/126
f 177/162/127 123/20/127 39/19/127 54/158/127
f 138/163/128 177/162/128 54/158/128 6/157/128
f 2/5/129 117/164/129 178/165/129 137/6/129
f 117/164/130 37/42/130 124/40/130 178/165/130
f 178/165/131 124/40/131 40/23/131 51/161/131
f 137/6/132 178/165/132 51/161/132 4/7/132
f 36/9/133 112/8/133 184/166/133 115/148/133
f 112/8/134 4/7/134 138/163/134 184/166/134
f 184/166/135 138/163/135 6/157/135 111/167/135
f 115/148/136 184/166/136 111/167/136 35/144/136
f 35/144/137 111/167/137 185/168/137 114/145/137
f 111/167/138 6/157/138 139/160/138 185/168/138
f 185/168/139 139/160/139 8/151/139 110/169/139
f 114/145/140 185/168/140 110/169/140 34/138/140
f 34/138/141 110/169/141 186/170/141 113/139/141
f 110/169/142 8/151/142 140/154/142 186/170/142
f 186/170/143 140/154/143 2/156/143 50/171/143
f 113/139/144 186/170/144 50/171/144 33/140/144
usemtl Material.002
f 13/172/145 71/173/145 151/174/145 69/175/145
f 71/173/146 16/176/146 73/177/146 151/174/146
f 151/174/147 73/177/147 18/178/147 75/179/147
f 69/175/148 151/174/148 75/179/148 14/180/148
f 18/178/149 74/181/149 152/182/149 75/183/149
f 74/181/150 19/52/150 77/69/150 152/182/150
f 152/182/151 77/69/151 20/68/151 76/184/151
f 75/183/152 152/182/152 76/184/152 14/185/152
f 16/176/153 72/186/153 153/187/153 73/177/153
f 72/186/154 17/54/154 78/53/154 153/187/154
f 153/187/155 78/53/155 19/52/155 74/181/155
f 73/177/156 153/187/156 74/181/156 18/178/156
f 13/188/157 70/189/157 154/190/157 71/191/157
f 70/189/158 15/61/158 79/72/158 154/190/158
f 154/190/159 79/72/159 17/54/159 72/186/159
f 71/191/160 154/190/160 72/186/160 16/176/160
f 14/192/161 76/193/161 155/194/161 69/195/161
f 76/193/162 20/63/162 80/62/162 155/194/162
f 155/194/163 80/62/163 15/61/163 70/189/163
f 69/195/164 155/194/164 70/189/164 13/188/164
f 41/44/165 125/196/165 179/197/165 136/45/165
f 125/196/166 42/198/166 126/199/166 179/197/166
f 179/197/167 126/199/167 43/200/167 132/201/167
f 136/45/168 179/197/168 132/201/168 48/25/168
f 48/25/169 132/201/169 180/202/169 135/26/169
f 132/201/170 43/200/170 127/203/170 180/202/170
f 180/202/171 127/203/171 44/204/171 131/205/171
f 135/26/172 180/202/172 131/205/172 47/27/172
f 47/27/173 131/205/173 181/206/173 134/30/173
f 131/205/174 44/204/174 128/207/174 181/206/174
f 181/206/175 128/207/175 45/208/175 130/209/175
f 134/30/176 181/206/176 130/209/176 46/16/176
f 46/16/177 130/209/177 182/210/177 133/17/177
f 130/209/178 45/208/178 129/211/178 182/210/178
f 182/210/179 129/211/179 42/212/179 125/213/179
f 133/17/180 182/210/180 125/213/180 41/18/180
f 44/204/181 127/214/181 183/215/181 128/207/181
f 127/214/182 43/216/182 126/217/182 183/215/182
f 183/215/183 126/217/183 42/218/183 129/219/183
f 128/207/184 183/215/184 129/219/184 45/208/184
